<svg width="32" height="32" viewBox="0 0 32 32" fill="none" xmlns="http://www.w3.org/2000/svg"> <path d="M6 3C6 1.89543 6.89543 1 8 1H17.9642C18.5186 1 19.0481 1.23009 19.4263 1.63536L22.3333 4.75L26.4621 9.17369C26.8078 9.54403 27 10.0317 27 10.5383V29C27 30.1046 26.1046 31 25 31H8C6.89543 31 6 30.1046 6 29V3Z" fill="#E4E2E0"/> <mask id="mask0" mask-type="alpha" maskUnits="userSpaceOnUse" x="6" y="1" width="21" height="30"> <path d="M6 3C6 1.89543 6.89543 1 8 1H19.1309C19.6853 1 20.2148 1.23009 20.593 1.63536L22.9167 4.125L26.4621 7.92369C26.8078 8.29403 27 8.78174 27 9.28833V29C27 30.1046 26.1046 31 25 31H8C6.89543 31 6 30.1046 6 29V3Z" fill="black"/> </mask> <g mask="url(#mask0)"> <rect x="6" y="21" width="21.2904" height="10" fill="#2557A7"/> <path d="M30.5 11L17.6666 11L17.6666 -2.75L24.0833 4.125L30.5 11Z" fill="#D4D2D0"/> <rect x="16.5" y="6" width="5.83333" height="6.25" fill="#E4E2E0"/> <path d="M24.6132 6.44268C25.2098 7.0819 24.7565 8.125 23.8821 8.125L21.35 8.125C20.7977 8.125 20.35 7.67728 20.35 7.125L20.35 4.41202C20.35 3.5044 21.4617 3.06618 22.081 3.7297L23.2666 5L24.6132 6.44268Z" fill="#D4D2D0"/> </g> <rect x="11.0167" y="1" width="9.33333" height="10" rx="1" fill="#E4E2E0"/> <rect x="17.6667" y="8.125" width="9.33333" height="10" rx="1" fill="#E4E2E0"/> <rect x="8.86365" y="4" width="8.59091" height="1" rx="0.5" fill="#D4D2D0"/> <rect x="8.86365" y="6" width="8.59091" height="1" rx="0.5" fill="#D4D2D0"/> <rect x="8.86365" y="8" width="8.59091" height="1" rx="0.5" fill="#D4D2D0"/> <rect x="8.86365" y="11" width="15.2727" height="1" rx="0.5" fill="#D4D2D0"/> <rect x="8.86365" y="13" width="15.2727" height="1" rx="0.5" fill="#D4D2D0"/> <rect x="8.86365" y="15" width="15.2727" height="1" rx="0.5" fill="#D4D2D0"/> <path d="M11.7652 25.7324H12.064C12.3433 25.7324 12.5523 25.6777 12.691 25.5684C12.8296 25.457 12.899 25.2959 12.899 25.085C12.899 24.8721 12.8404 24.7148 12.7232 24.6133C12.608 24.5117 12.4263 24.4609 12.1783 24.4609H11.7652V25.7324ZM13.816 25.0527C13.816 25.5137 13.6714 25.8662 13.3824 26.1104C13.0953 26.3545 12.6861 26.4766 12.1548 26.4766H11.7652V28H10.857V23.7168H12.2252C12.7447 23.7168 13.1392 23.8291 13.4088 24.0537C13.6802 24.2764 13.816 24.6094 13.816 25.0527ZM18.1783 25.8174C18.1783 26.5225 17.9771 27.0625 17.5748 27.4375C17.1744 27.8125 16.5953 28 15.8375 28H14.6246V23.7168H15.9693C16.6685 23.7168 17.2115 23.9014 17.5982 24.2705C17.9849 24.6396 18.1783 25.1553 18.1783 25.8174ZM17.2349 25.8408C17.2349 24.9209 16.8287 24.4609 16.0162 24.4609H15.5328V27.25H15.9224C16.7974 27.25 17.2349 26.7803 17.2349 25.8408ZM19.9595 28H19.066V23.7168H21.5211V24.4609H19.9595V25.5654H21.4127V26.3066H19.9595V28Z" fill="white"/> </svg> 